<?xml version="1.0" standalone="no"?><!DOCTYPE svg PUBLIC "-//W3C//DTD SVG 1.1//EN" "http://www.w3.org/Graphics/SVG/1.1/DTD/svg11.dtd"><svg t="1783559601021" class="icon" viewBox="0 0 1024 1024" version="1.1" xmlns="http://www.w3.org/2000/svg" p-id="23314" xmlns:xlink="http://www.w3.org/1999/xlink" width="256" height="256"><path d="M960.768 865.706667c16.298667 0 29.44 13.226667 29.525333 29.44 0 16.298667-13.226667 29.44-29.44 29.525333H76.458667c-16.298667 0-29.44-13.226667-29.525334-29.44 0-16.298667 13.226667-29.44 29.44-29.525333h884.394667z m-29.44-766.378667c32.597333 0 58.965333 26.368 58.965333 58.965333v530.602667c0 32.597333-26.368 58.965333-58.965333 58.965333H548.096v-648.533333h383.232z m-442.197333 0v648.533333h-383.146667c-32.597333 0-58.965333-26.368-58.965333-58.965333V158.293333c0-32.597333 26.368-58.965333 58.965333-58.965333h383.146667z" p-id="23315" fill="#515151"></path></svg>