<?xml version="1.0" standalone="no"?><!DOCTYPE svg PUBLIC "-//W3C//DTD SVG 1.1//EN" "http://www.w3.org/Graphics/SVG/1.1/DTD/svg11.dtd"><svg t="1783560545992" class="icon" viewBox="0 0 1024 1024" version="1.1" xmlns="http://www.w3.org/2000/svg" p-id="8228" xmlns:xlink="http://www.w3.org/1999/xlink" width="256" height="256"><path d="M960.16002 585.934896 960.16002 438.065104c-28.982078-6.033413-61.111846-11.462053-95.746668-16.242939-8.650007-33.883715-21.968337-65.809845-39.370683-95.138824 21.299095-28.111245 40.210817-54.757115 56.134485-79.299067l-104.561427-104.561427c-24.541953 15.923668-51.190893 34.836413-79.299067 56.134485-29.290093-17.377786-61.168128-30.68179-94.998631-39.334867-4.817726-34.942837-10.288321-67.164702-16.383132-95.782483L438.065104 63.83998c-6.094812 28.617781-11.565407 60.84067-16.383132 95.782483-33.830503 8.652054-65.708538 21.957081-94.998631 39.334867-28.108175-21.299095-54.757115-40.210817-79.299067-56.134485l-104.561427 104.561427c15.923668 24.541953 34.836413 51.187823 56.134485 79.299067-17.379832 29.287023-30.68179 61.168128-39.334867 94.998631-34.942837 4.817726-67.164702 10.288321-95.782483 16.383132l0 147.870816c28.617781 6.094812 60.84067 11.565407 95.782483 16.383132 8.652054 33.830503 21.957081 65.708538 39.334867 94.998631-21.299095 28.108175-40.210817 54.757115-56.134485 79.299067l104.561427 104.561427c24.541953-15.923668 51.190893-34.836413 79.299067-56.134485 29.290093 17.377786 61.168128 30.68179 94.998631 39.334867 4.817726 34.942837 10.288321 67.164702 16.383132 95.783507l147.870816 0c6.094812-28.617781 11.565407-60.84067 16.383132-95.783507 33.878598-8.66331 65.798589-21.995967 95.122451-39.409568 27.866674 21.10569 54.423517 39.986713 79.17627 56.210209l104.561427-104.561427c-16.223496-24.7548-35.102473-51.308573-56.20714-79.17627 17.436114-29.365818 30.783097-61.333904 39.443337-95.261621C899.04715 597.396949 931.177941 591.968309 960.16002 585.934896zM512 736.079498c-123.756605 0-224.079498-100.323916-224.079498-224.079498s100.322893-224.079498 224.079498-224.079498 224.079498 100.322893 224.079498 224.079498S635.756605 736.079498 512 736.079498z" fill="#8a8a8a" p-id="8229"></path></svg>